<svg width="900" height="680" viewBox="0 0 900 680" fill="none" xmlns="http://www.w3.org/2000/svg"><rect width="900" height="680" fill="#F8EEDB"/><rect x="88" y="96" width="724" height="420" rx="18" fill="#174B38"/><path d="M130 160h640M130 230h640M130 300h640M130 370h640M130 440h640" stroke="#D6AE5C" stroke-width="10" stroke-linecap="round"/><path d="M210 112v384M330 112v384M450 112v384M570 112v384M690 112v384" stroke="#FFF8E8" stroke-width="5" stroke-linecap="round" opacity=".5"/><path d="M210 560c72-86 179-86 250 0 72-86 178-86 249 0" stroke="#A7673F" stroke-width="34" stroke-linecap="round"/><circle cx="450" cy="302" r="82" fill="#FFF8E8" opacity=".15"/><path d="M403 302c33-50 70-50 103 0-33 50-70 50-103 0Z" fill="#D6AE5C"/></svg>
