<svg width="720" height="900" viewBox="0 0 720 900" fill="none" xmlns="http://www.w3.org/2000/svg"><rect width="720" height="900" fill="#FBF1DD"/><path d="M164 72h249c-64 118-69 222-26 345 42 120 123 252 57 410H132c50-135 28-251 22-380-6-132 56-248 10-375Z" fill="#B72262"/><path d="M413 72h120c-30 145-13 284 60 438 43 91 19 218-52 317h-97c66-158-15-290-57-410-43-123-38-227 26-345Z" fill="#DE5A92"/><path d="M180 131h321M154 777h396" stroke="#D4A64D" stroke-width="25"/><g stroke="#F2CE74" stroke-width="7"><path d="M240 240c26-38 55-38 82 0-27 37-56 37-82 0Z"/><path d="M292 482c26-38 55-38 82 0-27 37-56 37-82 0Z"/><path d="M218 642c26-38 55-38 82 0-27 37-56 37-82 0Z"/></g></svg>
