<svg width="720" height="900" viewBox="0 0 720 900" fill="none" xmlns="http://www.w3.org/2000/svg"><rect width="720" height="900" fill="#F9EEDC"/><path d="M150 76h257c-72 112-75 232-34 369 37 125 116 242 57 379H128c51-137 16-258 25-403 7-119 48-223-3-345Z" fill="#D8688C"/><path d="M407 76h123c-33 146-19 293 55 444 43 88 19 207-42 304H430c59-137-20-254-57-379-41-137-38-257 34-369Z" fill="#F1A6BD"/><path d="M177 130h319M154 778h389" stroke="#D8B45E" stroke-width="24"/><g stroke="#F8D97C" stroke-width="8"><path d="M233 266c30-34 58-34 88 0"/><path d="M312 505c30-34 58-34 88 0"/><path d="M224 655c30-34 58-34 88 0"/></g></svg>
