<svg width="720" height="900" viewBox="0 0 720 900" fill="none" xmlns="http://www.w3.org/2000/svg"><rect width="720" height="900" fill="#FAEDD7"/><path d="M152 75h255c-68 112-72 234-31 363 39 122 116 241 58 386H128c52-141 17-265 24-404 7-122 53-226 0-345Z" fill="#C98782"/><path d="M407 75h124c-35 151-20 292 55 441 44 88 19 210-43 308H434c58-145-19-264-58-386-41-129-37-251 31-363Z" fill="#E0AEA8"/><path d="M176 130h321M154 778h390" stroke="#8D5A3F" stroke-width="24"/><g fill="#F3D17F"><circle cx="252" cy="258" r="22"/><circle cx="351" cy="406" r="22"/><circle cx="260" cy="592" r="22"/></g></svg>
