<svg width="720" height="900" viewBox="0 0 720 900" fill="none" xmlns="http://www.w3.org/2000/svg"><rect width="720" height="900" fill="#F7EBD6"/><path d="M151 75h256c-70 116-74 240-32 370 39 122 115 239 56 379H128c51-141 16-264 24-404 8-123 51-227-1-345Z" fill="#A95B32"/><path d="M407 75h125c-34 151-20 294 55 443 44 88 18 209-43 306H431c59-140-17-257-56-379-42-130-38-254 32-370Z" fill="#D18A5E"/><path d="M176 130h321M154 778h390" stroke="#E1B969" stroke-width="24"/><g fill="#F5D48A"><circle cx="245" cy="258" r="9"/><circle cx="352" cy="351" r="9"/><circle cx="280" cy="512" r="9"/><circle cx="378" cy="661" r="9"/></g></svg>
