<svg width="720" height="900" viewBox="0 0 720 900" fill="none" xmlns="http://www.w3.org/2000/svg"><rect width="720" height="900" fill="#F8EEDB"/><path d="M145 75h260c-78 100-82 224-42 362 34 116 110 230 66 388H132c58-160 3-270 14-408 9-113 54-216-1-342Z" fill="#15513C"/><path d="M405 75h126c-38 154-27 306 56 452 38 66 33 183-34 298H429c44-158-32-272-66-388-40-138-36-262 42-362Z" fill="#1D6A4C"/><path d="M175 123h315M159 779h399" stroke="#D7AF5B" stroke-width="26"/><g fill="#E7C66E"><circle cx="234" cy="226" r="10"/><circle cx="336" cy="254" r="10"/><circle cx="255" cy="398" r="10"/><circle cx="376" cy="452" r="10"/><circle cx="231" cy="602" r="10"/><circle cx="342" cy="676" r="10"/></g></svg>
