<svg width="720" height="900" viewBox="0 0 720 900" fill="none" xmlns="http://www.w3.org/2000/svg"><rect width="720" height="900" fill="#F7EAD0"/><path d="M150 76h255c-75 120-75 238-32 369 40 121 112 245 54 379H126c54-145 17-272 27-414 9-125 49-223-3-334Z" fill="#122A4A"/><path d="M405 76h124c-31 153-19 295 54 443 44 90 19 209-40 305H427c58-134-14-258-54-379-43-131-43-249 32-369Z" fill="#1D4572"/><path d="M175 129h321M153 778h391" stroke="#D6AE5C" stroke-width="24"/><g fill="#D6AE5C"><path d="M252 242l13 26 29 4-21 20 5 28-26-13-26 13 5-28-21-20 29-4 13-26Z"/><path d="M353 485l13 26 29 4-21 20 5 28-26-13-26 13 5-28-21-20 29-4 13-26Z"/></g></svg>
