<svg width="720" height="900" viewBox="0 0 720 900" fill="none" xmlns="http://www.w3.org/2000/svg"><rect width="720" height="900" fill="#FBF0D8"/><path d="M152 75h258c-67 104-74 226-31 366 36 117 116 237 57 383H128c50-139 17-256 24-397 6-126 51-226 0-352Z" fill="#D68A13"/><path d="M410 75h121c-33 151-18 295 53 442 41 85 20 205-44 307H436c59-146-21-266-57-383-43-140-36-262 31-366Z" fill="#F2B53D"/><path d="M181 130h314M154 777h389" stroke="#7A4220" stroke-width="24"/><g fill="#F7DA86"><circle cx="246" cy="251" r="9"/><circle cx="347" cy="317" r="9"/><circle cx="285" cy="463" r="9"/><circle cx="378" cy="590" r="9"/><circle cx="241" cy="682" r="9"/></g></svg>
