<svg width="720" height="900" viewBox="0 0 720 900" fill="none" xmlns="http://www.w3.org/2000/svg"><rect width="720" height="900" fill="#FAF0DA"/><path d="M151 76h255c-71 113-75 241-33 371 39 121 114 238 56 377H127c53-143 16-263 25-404 8-124 50-225-1-344Z" fill="#7D9A73"/><path d="M406 76h124c-33 151-20 294 55 443 43 86 19 207-42 305H429c58-139-17-256-56-377-42-130-38-258 33-371Z" fill="#A8BE9A"/><path d="M176 130h319M154 778h390" stroke="#D5B66A" stroke-width="24"/><g fill="#FFF2C5"><circle cx="255" cy="277" r="10"/><circle cx="353" cy="390" r="10"/><circle cx="268" cy="555" r="10"/><circle cx="366" cy="671" r="10"/></g></svg>
