<svg width="720" height="900" viewBox="0 0 720 900" fill="none" xmlns="http://www.w3.org/2000/svg"><rect width="720" height="900" fill="#F8EBD5"/><path d="M149 74h258c-82 118-77 250-35 381 40 124 116 235 56 370H126c54-147 17-264 27-406 9-123 51-228-4-345Z" fill="#B01826"/><path d="M407 74h126c-36 152-21 298 55 447 45 89 20 207-44 304H428c60-135-16-246-56-370-42-131-47-263 35-381Z" fill="#D82F39"/><path d="M175 129h323M153 777h392" stroke="#E3B856" stroke-width="27"/><g fill="#F3D47A"><path d="M260 236c25 0 44 20 44 44s-19 44-44 44-44-20-44-44 19-44 44-44Z"/><path d="M365 502c25 0 44 20 44 44s-19 44-44 44-44-20-44-44 19-44 44-44Z"/></g></svg>
