<svg width="720" height="900" viewBox="0 0 720 900" fill="none" xmlns="http://www.w3.org/2000/svg"><rect width="720" height="900" fill="#F7EBD4"/><path d="M151 73h252c-78 116-75 247-31 377 41 123 119 239 57 375H130c51-139 12-269 24-407 10-122 50-229-3-345Z" fill="#651D35"/><path d="M403 73h129c-39 154-24 299 55 447 46 86 20 207-42 305H429c62-136-16-252-57-375-44-130-47-261 31-377Z" fill="#8B2A4B"/><path d="M176 128h322M153 778h394" stroke="#D6AE5C" stroke-width="26"/><path d="M223 245h196M201 355h239M235 469h207M204 585h223M228 698h172" stroke="#D6AE5C" stroke-width="8" stroke-linecap="round"/></svg>
