<svg width="720" height="900" viewBox="0 0 720 900" fill="none" xmlns="http://www.w3.org/2000/svg"><rect width="720" height="900" fill="#F8EEDB"/><path d="M148 76h258c-73 118-78 246-35 381 39 121 113 232 56 366H128c52-145 13-257 24-403 9-126 52-229-4-344Z" fill="#CAC8C0"/><path d="M406 76h124c-35 150-24 300 56 450 43 82 20 200-42 297H427c57-134-17-245-56-366-43-135-38-263 35-381Z" fill="#E7E0D6"/><path d="M176 130h319M153 778h390" stroke="#AFA780" stroke-width="25"/><g stroke="#FFF8E8" stroke-width="9"><path d="M244 245c16 16 37 16 53 0"/><path d="M318 407c16 16 37 16 53 0"/><path d="M239 572c16 16 37 16 53 0"/><path d="M348 684c16 16 37 16 53 0"/></g></svg>
