<svg width="720" height="900" viewBox="0 0 720 900" fill="none" xmlns="http://www.w3.org/2000/svg"><rect width="720" height="900" fill="#F5E7CD"/><path d="M150 76h255c-82 126-74 268-31 394 39 115 96 219 52 353H126c56-153 14-273 25-413 10-123 49-226-1-334Z" fill="#FDF8EB"/><path d="M405 76h124c-32 160-21 307 53 446 44 82 23 205-36 301H426c44-134-13-238-52-353-43-126-51-268 31-394Z" fill="#E9D8AD"/><path d="M175 129h322M153 779h391" stroke="#C8A358" stroke-width="25"/><g fill="#C8A358"><rect x="226" y="242" width="22" height="22" rx="11"/><rect x="335" y="334" width="22" height="22" rx="11"/><rect x="253" y="515" width="22" height="22" rx="11"/><rect x="357" y="652" width="22" height="22" rx="11"/></g></svg>
